<svg width="1024" height="1024" viewBox="0 0 1024 1024" fill="none" xmlns="http://www.w3.org/2000/svg">
<path fill-rule="evenodd" clip-rule="evenodd" d="M0 512C0 229.23 229.23 0 512 0C794.77 0 1024 229.23 1024 512C1024 794.77 794.77 1024 512 1024C229.23 1024 0 794.77 0 512Z" fill="#09102C"/>
<path fill-rule="evenodd" clip-rule="evenodd" d="M511.5 837C691.269 837 837 691.269 837 511.5C837 331.731 691.269 186 511.5 186C331.731 186 186 331.731 186 511.5C186 691.269 331.731 837 511.5 837ZM512 762C650.071 762 762 650.071 762 512C762 373.929 650.071 262 512 262C373.929 262 262 373.929 262 512C262 650.071 373.929 762 512 762Z" fill="#36D399"/>
<path fill-rule="evenodd" clip-rule="evenodd" d="M637 512C637 581.036 581.036 637 512 637C442.964 637 387 581.036 387 512C387 442.964 442.964 387 512 387C581.036 387 637 442.964 637 512Z" fill="#FFCC00"/>
</svg>
